<svg xmlns="http://www.w3.org/2000/svg" width="137" height="43" viewBox="0 0 137 43" fill="none"><path d="M97.1291 19.2727C97.1291 19.6855 97.1095 20.1603 97.0704 20.666C97.0508 20.955 97.0117 21.2544 96.9726 21.5743C96.9139 22.0285 96.5521 22.3691 96.1218 22.3691H80.1911C79.7119 22.3691 79.3305 22.7819 79.3305 23.2773C79.3305 23.3806 79.3501 23.4735 79.3794 23.5663C79.7511 24.7223 80.2987 25.6306 81.0419 26.3118C82.0199 27.2098 83.301 27.6536 84.8657 27.6536C85.9219 27.6742 86.9585 27.4265 87.8973 26.9311C88.7383 26.477 89.4913 25.837 90.0977 25.0733C90.2639 24.8668 90.5084 24.7533 90.7627 24.7636H94.7624C95.2319 24.7636 95.623 25.1662 95.623 25.6719C95.623 25.8164 95.5937 25.9609 95.5252 26.0848C94.5571 28.0458 93.2564 29.6043 91.6232 30.75C89.6478 32.1434 87.3203 32.8349 84.631 32.8349C81.4722 32.8349 78.8709 31.7615 76.8368 29.6043C74.8027 27.4575 73.7856 24.712 73.7856 21.3679C73.7758 19.4068 74.167 17.4664 74.9298 15.6808C75.6926 13.8952 76.7977 12.2954 78.1766 10.9846C79.2425 9.97312 80.4845 9.17837 81.8341 8.65198C83.2325 8.11527 84.719 7.84692 86.2055 7.85724C89.4131 7.85724 92.0242 8.92034 94.0583 11.0465C96.112 13.1727 97.1291 15.9182 97.1291 19.2727ZM90.6258 17.7245C91.0952 17.7245 91.4863 17.3219 91.4863 16.8162C91.4863 16.682 91.457 16.5478 91.4081 16.424C91.0169 15.5673 90.4399 14.8138 89.7163 14.2462C88.6699 13.4205 87.3692 13.0076 85.8338 13.0076C84.4843 12.987 83.1738 13.4205 82.0786 14.2565C81.3353 14.8138 80.7192 15.5363 80.2498 16.362C80.0151 16.7955 80.152 17.3426 80.5627 17.6006C80.6899 17.6832 80.8464 17.7245 80.993 17.7245H90.6258ZM55.1558 9.54994L50.9898 31.5035C49.7283 38.1401 44.2029 42.9189 37.7876 42.9189H25.6416C25.2406 42.9189 24.8886 42.6196 24.8006 42.1964L24.0671 38.5117C23.9693 38.0266 24.2627 37.5415 24.7321 37.4383C24.7908 37.4279 24.8495 37.4176 24.9081 37.4176L38.2766 37.397C40.9659 37.3866 43.4499 35.89 44.8092 33.4439C45.22 32.7111 44.4963 31.8234 43.7433 32.1537C43.6553 32.195 43.5575 32.2363 43.4695 32.2673C42.4426 32.6491 41.3669 32.8452 40.2814 32.8246C37.1715 32.8246 34.6484 31.7512 32.7121 29.594C30.7758 27.4472 29.8076 24.6294 29.8076 21.1408C29.7978 19.7165 30.013 18.2921 30.4335 16.9297C30.8736 15.5363 31.5092 14.2358 32.3209 13.0489C33.3967 11.4388 34.8342 10.1383 36.5065 9.25062C38.1592 8.37331 39.9782 7.93981 41.9537 7.92949C43.3814 7.91917 44.7995 8.21849 46.1001 8.83777C46.9118 9.22998 47.6746 9.73573 48.3494 10.355C48.7112 10.6853 49.2491 10.644 49.562 10.2621C49.6598 10.1383 49.7283 9.99376 49.7576 9.83894L49.875 9.18869C49.9532 8.76552 50.3053 8.45588 50.716 8.45588H54.3148C54.7842 8.45588 55.1754 8.85841 55.1754 9.36416C55.1754 9.43641 55.1656 9.49833 55.1558 9.54994ZM47.9778 19.3862C47.9778 17.4974 47.4301 15.9595 46.3348 14.7416C45.2395 13.534 43.8509 12.925 42.1786 12.925C40.2325 12.925 38.5504 13.7198 37.1324 15.3093C35.7144 16.8987 35.0103 18.8185 35.0103 21.0583C35.0103 23.0296 35.5481 24.6191 36.6336 25.8267C37.7192 27.0343 39.147 27.6433 40.917 27.6433C42.8925 27.6433 44.5648 26.8485 45.9339 25.259C47.2932 23.6799 47.9778 21.7188 47.9778 19.3862ZM58.5884 9.19902L54.5691 31.1319C54.4811 31.6273 54.7842 32.1021 55.2439 32.195C55.2928 32.2053 55.3514 32.2156 55.4101 32.2156H58.8525C59.2632 32.2156 59.6152 31.906 59.6935 31.4828L63.7128 9.56026C63.8008 9.06484 63.4977 8.59005 63.038 8.49716C62.9891 8.48684 62.9305 8.47652 62.8718 8.47652H59.4294C59.0187 8.4662 58.6667 8.77584 58.5884 9.19902ZM75.9371 0.787109H69.913C69.5022 0.787109 69.1502 1.09675 69.0719 1.51993L63.615 31.1319C63.527 31.6273 63.8302 32.1021 64.2898 32.195C64.3485 32.2053 64.3974 32.2156 64.4561 32.2156H67.9375C68.3483 32.2156 68.7003 31.906 68.7786 31.4828L73.2771 7.04185C73.3553 6.61868 73.7074 6.30904 74.1181 6.30904H75.233C75.6437 6.30904 75.9958 5.9994 76.074 5.57622L76.7683 1.87085C76.8563 1.37543 76.563 0.900644 76.0936 0.807752C76.0447 0.797431 75.9958 0.787109 75.9371 0.787109ZM27.7148 32.2053H23.5195C23.1185 32.2053 22.7665 31.906 22.6784 31.4931L21.6223 26.3015C21.5343 25.8887 21.192 25.5893 20.7812 25.5893H9.75985C9.44691 25.5893 9.1633 25.7648 9.00683 26.0538L6.02411 31.7409C5.86764 32.0299 5.58404 32.2156 5.2711 32.2156H0.860588C0.381397 32.2156 0 31.8028 0 31.3074C0 31.1525 0.0391177 30.9977 0.107573 30.8635L2.30794 26.6937L15.8426 1.25157C15.9991 0.962572 16.2827 0.787109 16.5956 0.787109H21.6418C22.0428 0.787109 22.3948 1.08643 22.4829 1.49928L28.5754 31.1113C28.6732 31.5964 28.3798 32.0815 27.9202 32.1847C27.842 32.195 27.7735 32.2053 27.7148 32.2053ZM20.1358 18.6431L18.5711 10.902C18.4733 10.4169 18.0137 10.097 17.554 10.2002C17.3095 10.2518 17.1042 10.4169 16.977 10.6543L12.9773 18.3953C12.7523 18.8392 12.899 19.3862 13.3195 19.6236C13.4467 19.6958 13.5836 19.7371 13.7303 19.7371H19.2948C19.7642 19.7371 20.1554 19.3346 20.1554 18.8288C20.1554 18.7669 20.1456 18.705 20.1358 18.6431Z" fill="white"></path><path d="M65.669 2.87155C65.5224 2.30388 65.2192 1.80845 64.7791 1.43688C64.3293 1.06531 63.7718 0.858887 63.2046 0.858887H43.5774C43.2938 0.858887 43.0591 1.1066 43.0591 1.40592C43.0591 1.70524 43.2938 1.95295 43.5774 1.95295H57.5228C57.7966 1.95295 58.0118 2.18002 58.0118 2.46902C58.0118 2.75802 57.7966 2.98509 57.5228 2.98509H37.7C37.4163 2.98509 37.1816 3.2328 37.1816 3.53212V3.58373C37.1816 3.88304 37.4163 4.13076 37.7 4.13076H54.2271C54.501 4.13076 54.7161 4.35783 54.7161 4.64683C54.7161 4.93582 54.501 5.16289 54.2271 5.16289H40.3404C40.0568 5.16289 39.8221 5.41061 39.8221 5.70993C39.8221 6.00924 40.0568 6.25696 40.3404 6.25696H63.2046C64.4271 6.25696 65.4735 5.34868 65.7082 4.07915C65.7864 3.67662 65.7668 3.26376 65.669 2.87155Z" fill="#18A8FF"></path><path d="M56.7401 38.0886L56.1337 41.3811H55.5372L56.0066 38.7182L54.7548 41.3811H54.0801L53.7965 38.7182L53.3075 41.3811H52.7012L53.3075 38.0886H54.2561L54.5299 40.5864L55.7523 38.0886H56.7401Z" fill="#18A8FF"></path><path d="M57.2588 41.3811L59.0093 38.0886H59.6645L60.3393 41.3811H59.7134L59.5765 40.6896H58.2954L57.9336 41.3811H57.2588ZM59.4592 40.0703L59.2244 38.8937L58.6181 40.0703H59.4592Z" fill="#18A8FF"></path><path d="M61.3066 41.3811L61.913 38.0886H62.7051L63.4288 40.638L63.8982 38.0886H64.4752L63.8688 41.3811H63.0767L62.3628 38.8111L61.8739 41.3811H61.3066Z" fill="#18A8FF"></path><path d="M65.0137 41.3811L66.7642 38.0886H67.4194L68.0942 41.3811H67.4683L67.3314 40.6896H66.0405L65.6787 41.3811H65.0137ZM67.2043 40.0703L66.9696 38.8937L66.3632 40.0703H67.2043Z" fill="#18A8FF"></path><path d="M72.4166 39.6575C72.3775 40.2045 72.1917 40.638 71.8787 40.958C71.5462 41.2883 71.1062 41.4638 70.6563 41.4431C70.226 41.4431 69.8837 41.3089 69.6197 41.0303C69.3654 40.7619 69.2285 40.3903 69.2285 39.9362C69.2285 39.7194 69.2579 39.513 69.3068 39.3066C69.3557 39.1208 69.4339 38.935 69.5415 38.7699C69.6979 38.5325 69.9033 38.3364 70.1576 38.2022C70.4118 38.068 70.6857 37.9958 70.9693 38.0061C71.292 37.9958 71.6147 38.0887 71.8787 38.2848C72.1232 38.4706 72.2895 38.7492 72.3579 39.0692H71.6831C71.6245 38.9247 71.5267 38.8112 71.3995 38.7389C71.2529 38.6563 71.0964 38.6151 70.9301 38.6254C70.6368 38.6151 70.3434 38.7492 70.1478 38.9763C69.9424 39.224 69.8251 39.5543 69.8446 39.8949C69.8348 40.1426 69.9131 40.3903 70.0793 40.5761C70.2456 40.7516 70.4705 40.8445 70.7052 40.8238C71.1062 40.8238 71.468 40.5968 71.6538 40.2149H70.3923L70.4998 39.6472L72.4166 39.6575Z" fill="#18A8FF"></path><path d="M73.4434 41.3811L74.0497 38.0886H75.7904L75.6926 38.646H74.568L74.4213 39.4304H75.5459L75.4384 39.9878H74.3137L74.1573 40.8238H75.2819L75.1743 41.3811H73.4434Z" fill="#18A8FF"></path><path d="M78.0298 40.1942L77.0421 41.3811H76.2988L77.7266 39.6575L76.954 38.0886H77.5995L78.1667 39.2343L79.1055 38.0886H79.8096L78.4699 39.7504L79.2815 41.3708H78.6165L78.0298 40.1942Z" fill="#18A8FF"></path><path d="M83.0266 41.3811L83.5449 38.646H82.8896L82.9874 38.0886H84.8455L84.7477 38.646H84.1512L83.6329 41.3811H83.0266Z" fill="#18A8FF"></path><path d="M85.5312 41.3811L86.1376 38.0886H87.8783L87.7805 38.646H86.6559L86.5092 39.4304H87.6338L87.5263 39.9878H86.4016L86.2451 40.8238H87.3698L87.2622 41.3811H85.5312Z" fill="#18A8FF"></path><path d="M91.9165 40.3386C91.7893 40.6689 91.5742 40.9579 91.2906 41.154C91.007 41.3501 90.6647 41.4533 90.3224 41.443C90.1464 41.443 89.9704 41.4223 89.8041 41.3604C89.4423 41.2365 89.1391 40.9579 88.9729 40.5863C88.8751 40.3695 88.8359 40.1425 88.8359 39.9051C88.8359 39.6574 88.8848 39.4097 88.9729 39.1826C89.0609 38.9452 89.1978 38.7388 89.364 38.5633C89.5205 38.3878 89.7161 38.2537 89.9215 38.1608C90.1366 38.0679 90.3713 38.0163 90.606 38.0163C90.9385 38.006 91.271 38.1195 91.5351 38.3259C91.7991 38.5323 91.9751 38.8317 92.0534 39.1619H91.3786C91.3101 38.9968 91.1928 38.8626 91.0559 38.7594C90.8994 38.6665 90.7234 38.6149 90.5473 38.6252C90.4104 38.6252 90.2735 38.6562 90.1464 38.7078C90.0192 38.7697 89.9019 38.8523 89.8041 38.9658C89.6965 39.0794 89.6085 39.2135 89.5498 39.3684C89.4912 39.5232 89.4618 39.678 89.4618 39.8432C89.452 40.1012 89.5401 40.3592 89.7161 40.5553C89.8823 40.7411 90.117 40.834 90.3615 40.8237C90.5278 40.8237 90.7038 40.7824 90.8505 40.6998C91.007 40.6069 91.1439 40.4831 91.2515 40.3283L91.9165 40.3386Z" fill="#18A8FF"></path><path d="M93.0117 41.3811L93.618 38.0886H94.2244L93.9799 39.3994H94.9676L95.2121 38.0886H95.8282L95.2219 41.3811H94.6058L94.8698 39.9671H93.8821L93.618 41.3811H93.0117Z" fill="#18A8FF"></path><path d="M96.708 41.3811L97.3143 38.0886H98.1065L98.8301 40.638L99.2996 38.0886H99.8765L99.2702 41.3811H98.4781L97.7642 38.8111L97.2752 41.3811H96.708Z" fill="#18A8FF"></path><path d="M100.904 39.9462C100.904 39.6779 100.943 39.3992 101.041 39.1515C101.129 38.9141 101.256 38.7077 101.432 38.5322C101.588 38.3671 101.784 38.2432 101.989 38.1503C102.204 38.0677 102.439 38.0161 102.664 38.0265C103.094 38.0265 103.446 38.1606 103.701 38.4393C103.955 38.7077 104.092 39.0792 104.092 39.5437C104.092 39.8121 104.053 40.0804 103.955 40.3384C103.867 40.5758 103.74 40.7823 103.564 40.9577C103.407 41.1229 103.212 41.2467 103.006 41.3396C102.791 41.4222 102.557 41.4738 102.322 41.4635C101.892 41.4635 101.549 41.3293 101.285 41.0506C101.031 40.741 100.894 40.3488 100.904 39.9462ZM101.53 39.9049C101.52 40.1527 101.608 40.4004 101.764 40.5862C101.931 40.7616 102.156 40.8545 102.38 40.8442C102.684 40.8545 102.967 40.7307 103.173 40.4933C103.378 40.2455 103.486 39.9153 103.476 39.5747C103.486 39.3269 103.407 39.0792 103.241 38.8935C103.075 38.718 102.85 38.6251 102.615 38.6457C102.322 38.6354 102.028 38.7696 101.833 38.9967C101.627 39.2341 101.51 39.5643 101.53 39.9049Z" fill="#18A8FF"></path><path d="M105.227 41.3811L105.833 38.0886H106.439L105.931 40.8135H106.958L106.85 41.3811H105.227Z" fill="#18A8FF"></path><path d="M108.072 39.9462C108.072 39.6779 108.111 39.3992 108.209 39.1515C108.297 38.9141 108.424 38.7077 108.6 38.5322C108.757 38.3671 108.952 38.2432 109.158 38.1503C109.373 38.0677 109.607 38.0161 109.832 38.0265C110.263 38.0265 110.615 38.1606 110.869 38.4393C111.123 38.7077 111.26 39.0792 111.26 39.5437C111.26 39.8121 111.221 40.0804 111.123 40.3384C111.035 40.5758 110.908 40.7823 110.732 40.9577C110.576 41.1229 110.38 41.2467 110.175 41.3396C109.959 41.4222 109.725 41.4738 109.49 41.4635C109.06 41.4635 108.717 41.3293 108.453 41.0506C108.199 40.741 108.052 40.3488 108.072 39.9462ZM108.688 39.9049C108.678 40.1527 108.766 40.4004 108.923 40.5862C109.089 40.7616 109.314 40.8545 109.539 40.8442C109.842 40.8545 110.126 40.7307 110.331 40.4933C110.536 40.2455 110.644 39.9153 110.634 39.5747C110.644 39.3269 110.566 39.0792 110.4 38.8935C110.233 38.718 110.008 38.6251 109.774 38.6457C109.48 38.6354 109.187 38.7696 108.991 38.9967C108.786 39.2341 108.678 39.5643 108.688 39.9049Z" fill="#18A8FF"></path><path d="M115.651 39.6575C115.612 40.2045 115.426 40.638 115.113 40.958C114.781 41.2883 114.341 41.4638 113.891 41.4431C113.46 41.4431 113.118 41.3089 112.854 41.0303C112.6 40.7619 112.463 40.3903 112.463 39.9362C112.463 39.7194 112.492 39.513 112.541 39.3066C112.59 39.1208 112.668 38.935 112.776 38.7699C112.932 38.5325 113.138 38.3364 113.392 38.2022C113.646 38.068 113.92 37.9958 114.204 38.0061C114.526 37.9958 114.849 38.0887 115.113 38.2848C115.358 38.4706 115.524 38.7492 115.592 39.0692H114.918C114.859 38.9247 114.761 38.8112 114.634 38.7389C114.487 38.6563 114.331 38.6151 114.165 38.6254C113.871 38.6151 113.578 38.7492 113.382 38.9763C113.177 39.224 113.059 39.5543 113.079 39.8949C113.069 40.1426 113.147 40.3903 113.314 40.5761C113.48 40.7516 113.705 40.8445 113.94 40.8238C114.341 40.8238 114.702 40.5968 114.888 40.2149H113.627L113.734 39.6472L115.651 39.6575Z" fill="#18A8FF"></path><path d="M116.688 41.3811L117.294 38.0886H117.9L117.294 41.3811H116.688Z" fill="#18A8FF"></path><path d="M118.741 41.3811L119.348 38.0886H121.088L120.99 38.646H119.866L119.719 39.4304H120.844L120.736 39.9878H119.612L119.455 40.8238H120.58L120.472 41.3811H118.741Z" fill="#18A8FF"></path><path d="M124.237 38.9759H123.641V38.9346C123.651 38.8314 123.612 38.7385 123.553 38.656C123.494 38.5837 123.406 38.5527 123.318 38.5527C123.22 38.5527 123.132 38.5837 123.064 38.656C122.995 38.7282 122.956 38.8211 122.966 38.914C122.966 39.0482 123.113 39.2133 123.406 39.4094C123.475 39.4507 123.533 39.492 123.572 39.523C123.729 39.6158 123.866 39.75 123.973 39.9152C124.052 40.07 124.091 40.2351 124.081 40.4106C124.091 40.6893 123.983 40.9679 123.788 41.1537C123.582 41.3498 123.308 41.4634 123.035 41.4427C122.712 41.4427 122.467 41.3498 122.291 41.1744C122.125 40.9989 122.037 40.7306 122.037 40.4003V40.3177H122.634C122.634 40.328 122.634 40.3383 122.634 40.359C122.634 40.3693 122.634 40.3899 122.634 40.3899C122.624 40.5138 122.663 40.6377 122.741 40.7306C122.819 40.8131 122.927 40.8544 123.035 40.8544C123.152 40.8544 123.26 40.8131 123.338 40.7306C123.416 40.648 123.455 40.5241 123.455 40.4106C123.455 40.328 123.436 40.2455 123.396 40.1835C123.328 40.0906 123.24 40.0184 123.142 39.9565C123.113 39.9461 123.074 39.9152 123.025 39.8842C122.859 39.7913 122.702 39.6675 122.555 39.523C122.487 39.4507 122.438 39.3578 122.399 39.2649C122.36 39.172 122.34 39.0688 122.34 38.9656C122.33 38.7076 122.428 38.4599 122.614 38.2844C122.819 38.1089 123.074 38.016 123.338 38.0264C123.582 38.016 123.817 38.0883 124.003 38.2534C124.169 38.4082 124.257 38.6353 124.247 38.8727C124.247 38.9037 124.247 38.9243 124.247 38.9346C124.247 38.945 124.237 38.9656 124.237 38.9759Z" fill="#18A8FF"></path><path d="M127.572 41.3811L128.179 38.0886H128.785L128.276 40.8135H129.303L129.196 41.3811H127.572Z" fill="#18A8FF"></path><path d="M130.662 41.3811L131.268 38.0886H131.875L131.366 40.8135H132.393L132.285 41.3811H130.662Z" fill="#18A8FF"></path><path d="M136.863 40.3386C136.736 40.6689 136.52 40.9579 136.237 41.154C135.953 41.3501 135.611 41.4533 135.269 41.443C135.093 41.443 134.917 41.4223 134.75 41.3604C134.389 41.2365 134.085 40.9579 133.919 40.5863C133.821 40.3695 133.782 40.1425 133.782 39.9051C133.782 39.6574 133.831 39.4097 133.919 39.1826C134.007 38.9452 134.144 38.7388 134.31 38.5633C134.467 38.3878 134.662 38.2537 134.868 38.1608C135.083 38.0679 135.318 38.0163 135.552 38.0163C135.885 38.006 136.217 38.1195 136.481 38.3259C136.745 38.5323 136.921 38.8317 137 39.1619H136.325C136.256 38.9968 136.139 38.8626 136.002 38.7594C135.846 38.6665 135.67 38.6149 135.494 38.6252C135.357 38.6252 135.22 38.6562 135.093 38.7078C134.966 38.7697 134.848 38.8523 134.75 38.9658C134.643 39.0794 134.555 39.2135 134.496 39.3684C134.437 39.5232 134.408 39.678 134.408 39.8432C134.398 40.1012 134.486 40.3592 134.662 40.5553C134.829 40.7411 135.063 40.834 135.308 40.8237C135.474 40.8237 135.65 40.7824 135.797 40.6998C135.953 40.6069 136.09 40.4831 136.198 40.3283L136.863 40.3386Z" fill="#18A8FF"></path></svg>