<svg xmlns="http://www.w3.org/2000/svg" xmlns:xlink="http://www.w3.org/1999/xlink" width="650" zoomAndPan="magnify" viewBox="0 0 487.5 528.000001" height="704" preserveAspectRatio="xMidYMid meet" version="1.0"><defs><clipPath id="90a11ad895"><path d="M 179 189 L 310 189 L 310 461.125 L 179 461.125 Z M 179 189 " clip-rule="nonzero"/></clipPath><clipPath id="5419628563"><path d="M 2 48.65625 L 486.789062 48.65625 L 486.789062 351 L 2 351 Z M 2 48.65625 " clip-rule="nonzero"/></clipPath></defs><g clip-path="url(#90a11ad895)"><path fill="#ebebf0" d="M 300.917969 189.855469 L 202.136719 189.855469 L 179.164062 336.453125 L 221.5625 336.453125 L 205.496094 461.40625 L 309.335938 295.855469 L 250.246094 295.855469 Z M 300.917969 189.855469 " fill-opacity="1" fill-rule="nonzero"/></g><g clip-path="url(#5419628563)"><path fill="#ebebf0" d="M 463.398438 193.703125 C 450.863281 178.972656 434.171875 168.410156 415.695312 163.394531 C 415.882812 161.546875 415.96875 159.6875 415.96875 157.828125 C 415.96875 126.859375 390.777344 101.664062 359.804688 101.664062 C 355.886719 101.664062 352.023438 102.070312 348.234375 102.863281 C 330.910156 69.699219 296.566406 48.65625 258.703125 48.65625 C 227.054688 48.65625 197.625 63.316406 178.542969 88.203125 C 168.945312 84.34375 158.8125 82.398438 148.308594 82.398438 C 126.90625 82.398438 106.683594 90.640625 91.378906 105.601562 C 77.601562 119.074219 69.15625 136.644531 67.253906 155.625 C 49.539062 162.441406 33.757812 174.347656 22.359375 189.636719 C 9.300781 207.175781 2.382812 228.03125 2.382812 249.964844 C 2.382812 305.65625 47.683594 350.953125 103.371094 350.953125 L 150.570312 350.953125 C 155.46875 350.953125 159.433594 346.988281 159.433594 342.089844 L 159.433594 225.769531 C 166.710938 222.410156 171.769531 215.058594 171.769531 206.515625 C 171.769531 194.8125 162.289062 185.3125 150.570312 185.3125 C 138.851562 185.3125 129.371094 194.796875 129.371094 206.515625 C 129.371094 215.058594 134.429688 222.410156 141.707031 225.769531 L 141.707031 333.226562 L 114.597656 333.226562 L 114.597656 279.65625 C 121.875 276.296875 126.933594 268.949219 126.933594 260.402344 C 126.933594 248.699219 117.449219 239.199219 105.734375 239.199219 C 94.015625 239.199219 84.535156 248.683594 84.535156 260.402344 C 84.535156 268.949219 89.59375 276.296875 96.871094 279.65625 L 96.871094 332.980469 C 53.980469 329.664062 20.082031 293.691406 20.082031 249.964844 C 20.082031 213.390625 43.503906 181.464844 78.378906 170.511719 C 81.996094 169.375 84.492188 166.074219 84.578125 162.285156 C 85.441406 127.433594 113.429688 100.136719 148.292969 100.136719 C 158.554688 100.136719 168.355469 102.515625 177.449219 107.199219 C 181.484375 109.273438 186.441406 107.976562 188.921875 104.171875 C 204.386719 80.523438 230.457031 66.386719 258.675781 66.386719 C 292.070312 66.386719 322.132812 86.230469 335.261719 116.929688 C 337.121094 121.265625 342.050781 123.398438 346.472656 121.757812 C 350.726562 120.183594 355.195312 119.394531 359.777344 119.394531 C 380.976562 119.394531 398.214844 136.644531 398.214844 157.828125 C 398.214844 161.214844 397.765625 164.605469 396.875 167.875 C 396.226562 170.28125 396.613281 172.847656 397.953125 174.953125 C 399.296875 177.054688 401.457031 178.496094 403.921875 178.914062 C 441.25 185.34375 468.359375 217.554688 468.359375 255.5 C 468.359375 296.546875 436.289062 330.617188 395.359375 333.066406 C 394.957031 333.097656 394.566406 333.140625 394.191406 333.210938 L 391.570312 333.210938 L 391.570312 279.640625 C 398.847656 276.285156 403.90625 268.933594 403.90625 260.386719 C 403.90625 248.683594 394.421875 239.1875 382.707031 239.1875 C 370.988281 239.1875 361.507812 248.667969 361.507812 260.386719 C 361.507812 268.933594 366.566406 276.285156 373.84375 279.640625 L 373.84375 333.210938 L 346.734375 333.210938 L 346.734375 225.753906 C 354.011719 222.394531 359.070312 215.046875 359.070312 206.5 C 359.070312 194.796875 349.585938 185.300781 337.871094 185.300781 C 326.152344 185.300781 316.671875 194.78125 316.671875 206.5 C 316.671875 215.046875 321.730469 222.394531 329.007812 225.753906 L 329.007812 342.074219 C 329.007812 346.976562 332.96875 350.9375 337.871094 350.9375 L 395.835938 350.9375 C 396.613281 350.9375 397.378906 350.835938 398.113281 350.636719 C 447.5625 346.789062 486.054688 305.324219 486.054688 255.5 C 486.054688 232.859375 477.984375 210.910156 463.34375 193.6875 Z M 463.398438 193.703125 " fill-opacity="1" fill-rule="nonzero"/></g></svg>